<svg width="38" height="18" viewBox="0 0 38 18" fill="none" xmlns="http://www.w3.org/2000/svg">
<path d="M28.19 2.09513C28.7608 1.49504 29.6341 1.25436 30.4063 1.48431L34.3579 2.66104C35.6813 3.05513 36.1094 4.59767 35.1946 5.67597L31.9704 9.47659C31.3774 10.1757 30.3911 10.4468 29.5548 10.1407L25.504 8.65769C24.2152 8.18587 23.8892 6.61701 24.8665 5.58948L28.19 2.09513Z" fill="#FF7300"/>
<path d="M29.0392 3.37359C29.2525 3.17865 29.5546 3.10865 29.8209 3.19249L32.5718 4.05851C33.1456 4.23914 33.2336 4.97659 32.7247 5.33898C32.515 5.48835 32.248 5.53262 32.0119 5.45716L29.2657 4.5794C28.7401 4.41141 28.6176 3.75899 29.0392 3.37359Z" fill="#FFFCFC"/>
<path d="M24.499 10.5478C24.2636 10.5392 24.0723 10.662 23.8599 10.5478C23.6475 10.4336 23.3851 10.2559 23.2281 10.0535C23.071 9.85108 22.95 9.61319 22.8722 9.3534C22.7943 9.0936 22.8589 8.81698 22.8722 8.53934C22.8854 8.2617 22.9449 7.98847 23.0473 7.73525C23.1496 7.48203 23.2928 7.25378 23.4686 7.06354C23.6444 6.87329 23.8495 6.72477 24.0721 6.62646C24.2946 6.52816 24.9305 6.60353 25.1659 6.61212L24.6649 8.60478L24.499 10.5478Z" fill="#FF7300"/>
<path d="M36.2156 6.44875L36.2155 5.88981L36.6416 5.88982L36.2156 6.44875Z" fill="#FF7300"/>
<path d="M24.476 8.07337C25.5784 8.46498 30.9622 10.2634 30.9622 10.2634L31.1028 11.852C31.1028 11.852 25.8056 10.2268 24.6419 9.92079C23.4782 9.61482 23.3737 7.68176 24.476 8.07337Z" fill="white"/>
<path d="M30.6767 10.5477L36.2157 4.39947L36.386 5.88996L36.414 6.13525L36.4286 6.26258L31.1029 12.4108L30.6767 10.5477Z" fill="white"/>
<path d="M24.0444 9.69253L31.2882 11.7432C31.2882 11.7432 31.5774 12.5826 31.3149 12.603C31.0523 12.6235 24.0711 10.5523 23.8598 10.5477L24.0444 9.69253Z" fill="#FF7300"/>
<path d="M31.3163 11.6656L36.642 5.89001C36.642 5.89001 36.855 6.44891 36.642 6.63522C36.4289 6.82153 31.7425 12.597 31.3164 12.5971C30.8902 12.5971 31.3163 11.6656 31.3163 11.6656Z" fill="#FF7300"/>
</svg>
