<svg width="20" height="20" viewBox="0 0 20 20" fill="none" xmlns="http://www.w3.org/2000/svg">
<g filter="url(#filter0_d_109_43)">
<rect x="4" y="3" width="11.853" height="11.7" fill="white"/>
<rect x="4" y="3" width="11.853" height="4.50001" fill="#FF7300"/>
<path d="M6.6145 3H7.31174V4.2H6.6145V3Z" fill="white"/>
<path d="M12.1924 3H12.8896V3.9L12.541 4.2L12.1924 3Z" fill="white"/>
<path d="M7.8347 4.34986C7.8347 4.76407 7.4445 5.09986 6.96315 5.09986C6.48181 5.09986 6.09161 4.76407 6.09161 4.34986C6.09161 3.93564 6.48181 3.59985 6.96315 3.59985C7.4445 3.59985 7.8347 3.93564 7.8347 4.34986Z" fill="white"/>
<path d="M14.11 4.34986C14.11 4.76407 13.7198 5.09986 13.2385 5.09986C12.7571 5.09986 12.3669 4.76407 12.3669 4.34986C12.3669 3.93564 12.7571 3.59985 13.2385 3.59985C13.7198 3.59985 14.11 3.93564 14.11 4.34986Z" fill="white"/>
<path d="M8.285 9.465H8.74V12.57H9.64V13H7.36V12.57H8.265V10.105L7.665 10.73L7.42 10.355L8.285 9.465ZM10.358 9.465H12.638V10.165L11.228 11.605V13H10.753V11.47L12.163 10.03V9.895H10.358V9.465Z" fill="#6C5A5A"/>
<path d="M4.75327 6.81005V6.68605C4.8626 6.68605 4.9426 6.66338 4.99327 6.61805C5.04393 6.57138 5.06927 6.49072 5.06927 6.37605V5.44005H5.19927V6.37605C5.19927 6.45872 5.18593 6.53338 5.15927 6.60005C5.13393 6.66538 5.0886 6.71672 5.02327 6.75405C4.95927 6.79138 4.86927 6.81005 4.75327 6.81005ZM5.6122 5.44005H5.7482V6.31205C5.7482 6.43338 5.77287 6.52872 5.8222 6.59805C5.87287 6.66738 5.95154 6.70205 6.0582 6.70205C6.1662 6.70205 6.24487 6.66738 6.2942 6.59805C6.34354 6.52872 6.3682 6.43338 6.3682 6.31205V5.44005H6.5042V6.31205C6.5042 6.47338 6.46687 6.59872 6.3922 6.68805C6.31887 6.77605 6.20754 6.82005 6.0582 6.82005C5.90887 6.82005 5.79687 6.77605 5.7222 6.68805C5.64887 6.59872 5.6122 6.47338 5.6122 6.31205V5.44005ZM7.65698 6.68205V6.80005H6.93898V5.44005H7.06898V6.68205H7.65698Z" fill="#FFE6E6"/>
</g>
<defs>
<filter id="filter0_d_109_43" x="0" y="0" width="19.853" height="19.7" filterUnits="userSpaceOnUse" color-interpolation-filters="sRGB">
<feFlood flood-opacity="0" result="BackgroundImageFix"/>
<feColorMatrix in="SourceAlpha" type="matrix" values="0 0 0 0 0 0 0 0 0 0 0 0 0 0 0 0 0 0 127 0" result="hardAlpha"/>
<feOffset dy="1"/>
<feGaussianBlur stdDeviation="2"/>
<feComposite in2="hardAlpha" operator="out"/>
<feColorMatrix type="matrix" values="0 0 0 0 0 0 0 0 0 0 0 0 0 0 0 0 0 0 0.19 0"/>
<feBlend mode="normal" in2="BackgroundImageFix" result="effect1_dropShadow_109_43"/>
<feBlend mode="normal" in="SourceGraphic" in2="effect1_dropShadow_109_43" result="shape"/>
</filter>
</defs>
</svg>
