<svg width="90" height="131" viewBox="0 0 90 131" fill="none" xmlns="http://www.w3.org/2000/svg">
<path d="M0 57.095C0 56.5427 0.447715 56.095 1 56.095H88.5C89.0523 56.095 89.5 56.5427 89.5 57.095V130C89.5 130.552 89.0523 131 88.5 131H1C0.447716 131 0 130.552 0 130V57.095Z" fill="#A49797"/>
<path d="M13.7917 35.749C13.8425 31.0544 14.7487 26.4109 16.4587 22.0837C18.1686 17.7566 20.6488 13.8304 23.7576 10.5295C26.8664 7.22852 30.5429 4.61741 34.5773 2.84522C38.6116 1.07303 42.9248 0.174475 47.2705 0.200849C51.6162 0.227223 55.9093 1.17802 59.9048 2.99894C63.9003 4.81986 67.5198 7.47524 70.5568 10.8135C73.5938 14.1517 75.9887 18.1075 77.6048 22.4548C79.2209 26.8022 79.2198 31.2138 79.169 35.9085L46.8837 35.9498L13.7917 35.749Z" fill="#A49797"/>
<path d="M25.2602 35.8169C25.2983 32.2959 25.9052 28.8129 27.0463 25.5666C28.1873 22.3204 29.8402 19.3745 31.9106 16.8972C33.9809 14.4199 36.4282 12.4597 39.1126 11.1285C41.797 9.7973 44.666 9.12116 47.5558 9.1387C50.4456 9.15623 53.2996 9.86711 55.9549 11.2307C58.6101 12.5943 61.0146 14.584 63.0311 17.0861C65.0476 19.5882 66.6365 22.5537 67.7072 25.8134C68.7779 29.0731 69.3093 32.563 69.2712 36.084L47.2657 35.9504L25.2602 35.8169Z" fill="white"/>
<path d="M69.3781 35.2407H79.1672L79.5556 56.095L83.5334 73.9701H67.6223L69.3781 35.2407Z" fill="#A49797"/>
</svg>
