<svg width="90" height="99" viewBox="0 0 90 99" fill="none" xmlns="http://www.w3.org/2000/svg">
<path d="M27.375 0.547363C27.495 0.580641 27.6769 0.660739 27.9268 0.813965C28.1985 0.980606 28.5214 1.21362 28.8916 1.51123C30.3795 2.70742 32.4992 4.83253 34.8945 7.4165C39.6759 12.5745 45.4796 19.4765 49.3701 24.189C51.8747 27.2223 56.4874 27.4073 59.1367 24.4712C63.484 19.6532 69.7492 12.453 72.4482 8.09229C72.3809 8.58736 72.2753 9.21299 72.1318 9.95947C71.565 12.9095 70.4637 17.5019 69.1719 22.5835C66.5896 32.7407 63.2575 44.8069 61.9541 49.4907C61.5611 50.9035 61.6577 52.3805 62.2031 53.7349C63.1919 56.19 64.9174 60.5966 66.2441 64.6362C66.9081 66.6578 67.4673 68.5745 67.7861 70.103C67.9458 70.8684 68.0416 71.5214 68.0635 72.0337C68.0853 72.5466 68.0263 72.8314 67.9609 72.9575C67.9524 72.9609 67.9385 72.9676 67.916 72.9722C67.8291 72.9897 67.6792 72.9927 67.4492 72.9556C66.9908 72.8814 66.3483 72.6716 65.5469 72.3335C63.9532 71.6611 61.8457 70.5343 59.542 69.1938C54.9404 66.5163 49.6223 63.0254 46.2021 60.729C43.8975 59.1817 40.8731 59.2238 38.6436 60.894C33.0176 65.1089 22.0405 73.4396 18.5312 76.8765C18.3274 77.0762 18.1819 77.1694 18.0928 77.2056C18.0724 77.2138 18.0573 77.2152 18.0479 77.2173C18.0323 77.2001 18.0033 77.1624 17.9688 77.0854C17.9101 76.9547 17.856 76.7578 17.8145 76.4849C17.6455 75.3752 17.7514 73.44 18.0361 71.0708C18.6015 66.3655 19.8371 60.187 20.7139 56.0874C21.314 53.2804 20.0581 50.4043 17.5996 48.9263C13.7561 46.6157 7.91978 42.9673 4.1709 39.9712C3.23529 39.2234 2.43966 38.5241 1.84082 37.9028C1.2296 37.2687 0.86846 36.7608 0.739258 36.3979C0.677613 36.2247 0.68542 36.1307 0.698242 36.0874C0.707506 36.0565 0.733376 36.0004 0.851562 35.9341C1.12958 35.778 1.73695 35.6669 2.85156 35.7329C9.79962 36.1443 17.6791 33.9637 22.9658 32.1138C24.679 31.5143 26.4742 30.6071 27.8125 29.3706C29.1574 28.1281 30.0739 26.5172 29.9102 24.5483C29.6011 20.8322 29.0442 15.8014 28.5273 11.2358C28.0095 6.66154 27.533 2.56395 27.3799 0.692871C27.3748 0.631075 27.3736 0.583378 27.375 0.547363Z" fill="#F38046" stroke="#F38046"/>
<path d="M41.6892 39.0288C41.6892 39.0288 28.6894 1.52875 27.6894 0.528751C26.6894 -0.471249 31.6892 25.0288 27.1892 29.5288C22.6892 34.0288 4.04031 35.1474 0.689227 36.0287C-2.66186 36.91 39.6434 42.0854 41.1891 41.0288L41.6892 39.0288Z" fill="#F15A34" stroke="#F15A34"/>
<path d="M38.1877 42.5288C38.6877 47.5288 18.3293 75.6217 18.1876 77.0288C18.0459 78.4359 37.9414 57.7776 43.1878 60.0287C48.4342 62.2799 63.8348 72.6062 67.6878 73.0288C71.5408 73.4514 44.6858 41.0342 42.8896 40.5056C42.8896 40.5056 37.6877 37.5288 38.1877 42.5288Z" fill="#F15A34" stroke="#F15A34"/>
<path d="M56.8811 2.23364L57.3811 14.7336L78.3811 15.7336L78.8811 2.23364H56.8811Z" fill="#645353" stroke="#BBBBBB"/>
<circle cx="32.8811" cy="41.2336" r="2" fill="white"/>
<circle cx="39.8811" cy="33.2336" r="2" fill="white"/>
<circle cx="38.8811" cy="28.2336" r="2" fill="white"/>
<circle cx="39.8811" cy="33.2336" r="2" fill="white"/>
<circle cx="26.8811" cy="40.2336" r="2" fill="white"/>
<circle cx="55.8811" cy="36.2336" r="2" fill="white"/>
<circle cx="50.8811" cy="54.2336" r="2" fill="white"/>
<circle cx="41.8811" cy="41.2336" r="4" fill="white"/>
<circle cx="34.8811" cy="50.2336" r="2" fill="white"/>
<circle cx="30.8811" cy="55.2336" r="2" fill="white"/>
<circle cx="46.8811" cy="49.2336" r="2" fill="white"/>
<circle cx="54.3811" cy="58.7336" r="1.5" fill="white"/>
<circle cx="27.3811" cy="59.7336" r="1.5" fill="white"/>
<circle cx="20.3811" cy="39.7336" r="1.5" fill="white"/>
<circle cx="59.3811" cy="31.7336" r="1.5" fill="white"/>
<circle cx="36.3811" cy="21.7336" r="1.5" fill="white"/>
<circle cx="33.8811" cy="15.2336" r="1" fill="white"/>
<circle cx="63.8811" cy="27.2336" r="1" fill="white"/>
<circle cx="57.8811" cy="62.2336" r="1" fill="white"/>
<circle cx="61.8811" cy="66.2336" r="1" fill="white"/>
<circle cx="64.8811" cy="69.2336" r="1" fill="white"/>
<circle cx="24.8811" cy="64.2336" r="1" fill="white"/>
<circle cx="21.8811" cy="68.2336" r="1" fill="white"/>
<circle cx="14.8811" cy="40.2336" r="1" fill="white"/>
<circle cx="9.8811" cy="39.2336" r="1" fill="white"/>
<circle cx="5.3811" cy="37.7336" r="0.5" fill="white"/>
<circle cx="32.3811" cy="10.7336" r="0.5" fill="white"/>
<circle cx="30.3811" cy="6.73364" r="0.5" fill="white"/>
<circle cx="50.8811" cy="39.2336" r="2" fill="white"/>
<path d="M43.8813 18.2336L78.8813 16.2336V18.2336L43.8813 20.7336V18.2336Z" fill="#BBBBBB"/>
<path d="M60.8813 16.2336L78.8813 18.2336L69.8813 22.7336L43.8813 20.7336L60.8813 16.2336Z" fill="#BBBBBB"/>
<path d="M57.3813 15.2336L78.8813 16.2336L69.8813 20.2721L43.8813 18.2721L57.3813 15.2336Z" fill="#DBDBDB"/>
<path d="M60.8811 16.2336L78.8811 18.2336L69.8811 22.7336L43.8811 20.7336L60.8811 16.2336Z" fill="#BBBBBB"/>
<path d="M57.3811 15.2336L78.8811 16.2336L69.8811 20.2721L43.8811 18.2721L57.3811 15.2336Z" fill="#DBDBDB"/>
<path d="M60.8811 16.2336L78.8811 18.2336L69.8811 22.7336L43.8811 20.7336L60.8811 16.2336Z" fill="#BBBBBB"/>
<path d="M57.3811 15.2336L78.8811 16.2336L69.8811 20.2721L43.8811 18.2721L57.3811 15.2336Z" fill="#DBDBDB"/>
<path d="M57.8812 15.7336L75.8884 16.7446L68.5598 19.1428L47.3884 17.9551L57.8812 15.7336Z" fill="#F1EDED"/>
<path fill-rule="evenodd" clip-rule="evenodd" d="M71.8811 16.2336L68.8811 16.7336V17.2336L71.8811 16.7336V16.2336Z" fill="#BBBBBB"/>
<path d="M70.3811 16.2336H71.8811L70.8811 16.7336H68.8811L70.3811 16.2336Z" fill="#BBBBBB"/>
<path d="M70.3811 16.2336H71.8811L70.8811 16.7336H68.8811L70.3811 16.2336Z" fill="white"/>
<path d="M70.3811 16.7336H71.8811L70.8811 17.2336H68.8811L70.3811 16.7336Z" fill="#BBBBBB"/>
<path d="M70.3811 16.7336H71.8811L70.8811 17.2336H68.8811L70.3811 16.7336Z" fill="#BBBBBB"/>
<path fill-rule="evenodd" clip-rule="evenodd" d="M68.8811 16.2336L65.8811 16.7336V17.2336L68.8811 16.7336V16.2336Z" fill="#BBBBBB"/>
<path d="M67.3811 16.2336H68.8811L67.8811 16.7336H65.8811L67.3811 16.2336Z" fill="#BBBBBB"/>
<path d="M67.3811 16.2336H68.8811L67.8811 16.7336H65.8811L67.3811 16.2336Z" fill="white"/>
<path d="M67.3811 16.7336H68.8811L67.8811 17.2336H65.8811L67.3811 16.7336Z" fill="#BBBBBB"/>
<path d="M67.3811 16.7336H68.8811L67.8811 17.2336H65.8811L67.3811 16.7336Z" fill="#BBBBBB"/>
<path fill-rule="evenodd" clip-rule="evenodd" d="M68.8811 16.2336L65.8811 16.7336V17.2336L68.8811 16.7336V16.2336Z" fill="#BBBBBB"/>
<path d="M67.3811 16.2336H68.8811L67.8811 16.7336H65.8811L67.3811 16.2336Z" fill="#BBBBBB"/>
<path d="M67.3811 16.2336H68.8811L67.8811 16.7336H65.8811L67.3811 16.2336Z" fill="white"/>
<path d="M67.3811 16.7336H68.8811L67.8811 17.2336H65.8811L67.3811 16.7336Z" fill="#BBBBBB"/>
<path d="M67.3811 16.7336H68.8811L67.8811 17.2336H65.8811L67.3811 16.7336Z" fill="#BBBBBB"/>
<path fill-rule="evenodd" clip-rule="evenodd" d="M65.8811 16.2336L62.8811 16.7336V17.2336L65.8811 16.7336V16.2336Z" fill="#BBBBBB"/>
<path d="M64.3811 16.2336H65.8811L64.8811 16.7336H62.8811L64.3811 16.2336Z" fill="#BBBBBB"/>
<path d="M64.3811 16.2336H65.8811L64.8811 16.7336H62.8811L64.3811 16.2336Z" fill="white"/>
<path d="M64.3811 16.7336H65.8811L64.8811 17.2336H62.8811L64.3811 16.7336Z" fill="#BBBBBB"/>
<path d="M64.3811 16.7336H65.8811L64.8811 17.2336H62.8811L64.3811 16.7336Z" fill="#BBBBBB"/>
<path fill-rule="evenodd" clip-rule="evenodd" d="M63.8811 17.2336L60.8811 17.7336V18.2336L63.8811 17.7336V17.2336Z" fill="#BBBBBB"/>
<path d="M62.3811 17.2336H63.8811L62.8811 17.7336H60.8811L62.3811 17.2336Z" fill="#BBBBBB"/>
<path d="M62.3811 17.2336H63.8811L62.8811 17.7336H60.8811L62.3811 17.2336Z" fill="white"/>
<path d="M62.3811 17.7336H63.8811L62.8811 18.2336H60.8811L62.3811 17.7336Z" fill="#BBBBBB"/>
<path d="M62.3811 17.7336H63.8811L62.8811 18.2336H60.8811L62.3811 17.7336Z" fill="#BBBBBB"/>
<path fill-rule="evenodd" clip-rule="evenodd" d="M66.8811 17.2336L63.8811 17.7336V18.2336L66.8811 17.7336V17.2336Z" fill="#BBBBBB"/>
<path d="M65.3811 17.2336H66.8811L65.8811 17.7336H63.8811L65.3811 17.2336Z" fill="#BBBBBB"/>
<path d="M65.3811 17.2336H66.8811L65.8811 17.7336H63.8811L65.3811 17.2336Z" fill="white"/>
<path d="M65.3811 17.7336H66.8811L65.8811 18.2336H63.8811L65.3811 17.7336Z" fill="#BBBBBB"/>
<path d="M65.3811 17.7336H66.8811L65.8811 18.2336H63.8811L65.3811 17.7336Z" fill="#BBBBBB"/>
<path fill-rule="evenodd" clip-rule="evenodd" d="M68.8811 17.2336L65.8811 17.7336V18.2336L68.8811 17.7336V17.2336Z" fill="#BBBBBB"/>
<path d="M67.3811 17.2336H68.8811L67.8811 17.7336H65.8811L67.3811 17.2336Z" fill="#BBBBBB"/>
<path d="M67.3811 17.2336H68.8811L67.8811 17.7336H65.8811L67.3811 17.2336Z" fill="white"/>
<path d="M67.3811 17.7336H68.8811L67.8811 18.2336H65.8811L67.3811 17.7336Z" fill="#BBBBBB"/>
<path d="M67.3811 17.7336H68.8811L67.8811 18.2336H65.8811L67.3811 17.7336Z" fill="#BBBBBB"/>
<path fill-rule="evenodd" clip-rule="evenodd" d="M70.8811 17.2336L67.8811 17.7336V18.2336L70.8811 17.7336V17.2336Z" fill="#BBBBBB"/>
<path d="M69.3811 17.2336H70.8811L69.8811 17.7336H67.8811L69.3811 17.2336Z" fill="#BBBBBB"/>
<path d="M69.3811 17.2336H70.8811L69.8811 17.7336H67.8811L69.3811 17.2336Z" fill="white"/>
<path d="M69.3811 17.7336H70.8811L69.8811 18.2336H67.8811L69.3811 17.7336Z" fill="#BBBBBB"/>
<path d="M69.3811 17.7336H70.8811L69.8811 18.2336H67.8811L69.3811 17.7336Z" fill="#BBBBBB"/>
<path fill-rule="evenodd" clip-rule="evenodd" d="M63.8811 16.2336L60.8811 16.7336V17.2336L63.8811 16.7336V16.2336Z" fill="#BBBBBB"/>
<path d="M62.3811 16.2336H63.8811L62.8811 16.7336H60.8811L62.3811 16.2336Z" fill="#BBBBBB"/>
<path d="M62.3811 16.2336H63.8811L62.8811 16.7336H60.8811L62.3811 16.2336Z" fill="white"/>
<path d="M62.3811 16.7336H63.8811L62.8811 17.2336H60.8811L62.3811 16.7336Z" fill="#BBBBBB"/>
<path d="M62.3811 16.7336H63.8811L62.8811 17.2336H60.8811L62.3811 16.7336Z" fill="#BBBBBB"/>
<path fill-rule="evenodd" clip-rule="evenodd" d="M60.8811 16.2336L57.8811 16.7336V17.2336L60.8811 16.7336V16.2336Z" fill="#BBBBBB"/>
<path d="M59.3811 16.2336H60.8811L59.8811 16.7336H57.8811L59.3811 16.2336Z" fill="#BBBBBB"/>
<path d="M59.3811 16.2336H60.8811L59.8811 16.7336H57.8811L59.3811 16.2336Z" fill="white"/>
<path d="M59.3811 16.7336H60.8811L59.8811 17.2336H57.8811L59.3811 16.7336Z" fill="#BBBBBB"/>
<path d="M59.3811 16.7336H60.8811L59.8811 17.2336H57.8811L59.3811 16.7336Z" fill="#BBBBBB"/>
<path fill-rule="evenodd" clip-rule="evenodd" d="M58.8811 16.2336L55.8811 16.7336V17.2336L58.8811 16.7336V16.2336Z" fill="#BBBBBB"/>
<path d="M57.3811 16.2336H58.8811L57.8811 16.7336H55.8811L57.3811 16.2336Z" fill="#BBBBBB"/>
<path d="M57.3811 16.2336H58.8811L57.8811 16.7336H55.8811L57.3811 16.2336Z" fill="white"/>
<path d="M57.3811 16.7336H58.8811L57.8811 17.2336H55.8811L57.3811 16.7336Z" fill="#BBBBBB"/>
<path d="M57.3811 16.7336H58.8811L57.8811 17.2336H55.8811L57.3811 16.7336Z" fill="#BBBBBB"/>
<path fill-rule="evenodd" clip-rule="evenodd" d="M61.8811 17.2336L58.8811 17.7336V18.2336L61.8811 17.7336V17.2336Z" fill="#BBBBBB"/>
<path d="M60.3811 17.2336H61.8811L60.8811 17.7336H58.8811L60.3811 17.2336Z" fill="#BBBBBB"/>
<path d="M60.3811 17.2336H61.8811L60.8811 17.7336H58.8811L60.3811 17.2336Z" fill="white"/>
<path d="M60.3811 17.7336H61.8811L60.8811 18.2336H58.8811L60.3811 17.7336Z" fill="#BBBBBB"/>
<path d="M60.3811 17.7336H61.8811L60.8811 18.2336H58.8811L60.3811 17.7336Z" fill="#BBBBBB"/>
<path fill-rule="evenodd" clip-rule="evenodd" d="M59.8811 17.2336L56.8811 17.7336V18.2336L59.8811 17.7336V17.2336Z" fill="#BBBBBB"/>
<path d="M58.3811 17.2336H59.8811L58.8811 17.7336H56.8811L58.3811 17.2336Z" fill="#BBBBBB"/>
<path d="M58.3811 17.2336H59.8811L58.8811 17.7336H56.8811L58.3811 17.2336Z" fill="white"/>
<path d="M58.3811 17.7336H59.8811L58.8811 18.2336H56.8811L58.3811 17.7336Z" fill="#BBBBBB"/>
<path d="M58.3811 17.7336H59.8811L58.8811 18.2336H56.8811L58.3811 17.7336Z" fill="#BBBBBB"/>
<path fill-rule="evenodd" clip-rule="evenodd" d="M59.8811 17.2336L56.8811 17.7336V18.2336L59.8811 17.7336V17.2336Z" fill="#BBBBBB"/>
<path d="M58.3811 17.2336H59.8811L58.8811 17.7336H56.8811L58.3811 17.2336Z" fill="#BBBBBB"/>
<path d="M58.3811 17.2336H59.8811L58.8811 17.7336H56.8811L58.3811 17.2336Z" fill="white"/>
<path d="M58.3811 17.7336H59.8811L58.8811 18.2336H56.8811L58.3811 17.7336Z" fill="#BBBBBB"/>
<path d="M58.3811 17.7336H59.8811L58.8811 18.2336H56.8811L58.3811 17.7336Z" fill="#BBBBBB"/>
<path fill-rule="evenodd" clip-rule="evenodd" d="M57.8811 17.2336L54.8811 17.7336V18.2336L57.8811 17.7336V17.2336Z" fill="#BBBBBB"/>
<path d="M56.3811 17.2336H57.8811L56.8811 17.7336H54.8811L56.3811 17.2336Z" fill="#BBBBBB"/>
<path d="M56.3811 17.2336H57.8811L56.8811 17.7336H54.8811L56.3811 17.2336Z" fill="white"/>
<path d="M56.3811 17.7336H57.8811L56.8811 18.2336H54.8811L56.3811 17.7336Z" fill="#BBBBBB"/>
<path d="M56.3811 17.7336H57.8811L56.8811 18.2336H54.8811L56.3811 17.7336Z" fill="#BBBBBB"/>
<path fill-rule="evenodd" clip-rule="evenodd" d="M57.8811 17.2336L54.8811 17.7336V18.2336L57.8811 17.7336V17.2336Z" fill="#BBBBBB"/>
<path d="M56.3811 17.2336H57.8811L56.8811 17.7336H54.8811L56.3811 17.2336Z" fill="#BBBBBB"/>
<path d="M56.3811 17.2336H57.8811L56.8811 17.7336H54.8811L56.3811 17.2336Z" fill="white"/>
<path d="M56.3811 17.7336H57.8811L56.8811 18.2336H54.8811L56.3811 17.7336Z" fill="#BBBBBB"/>
<path d="M56.3811 17.7336H57.8811L56.8811 18.2336H54.8811L56.3811 17.7336Z" fill="#BBBBBB"/>
<path fill-rule="evenodd" clip-rule="evenodd" d="M55.8811 16.2336L52.8811 16.7336V17.2336L55.8811 16.7336V16.2336Z" fill="#BBBBBB"/>
<path d="M54.3811 16.2336H55.8811L54.8811 16.7336H52.8811L54.3811 16.2336Z" fill="#BBBBBB"/>
<path d="M54.3811 16.2336H55.8811L54.8811 16.7336H52.8811L54.3811 16.2336Z" fill="white"/>
<path d="M54.3811 16.7336H55.8811L54.8811 17.2336H52.8811L54.3811 16.7336Z" fill="#BBBBBB"/>
<path d="M54.3811 16.7336H55.8811L54.8811 17.2336H52.8811L54.3811 16.7336Z" fill="#BBBBBB"/>
<path fill-rule="evenodd" clip-rule="evenodd" d="M54.8811 17.2336L51.8811 17.7336V18.2336L54.8811 17.7336V17.2336Z" fill="#BBBBBB"/>
<path d="M53.3811 17.2336H54.8811L53.8811 17.7336H51.8811L53.3811 17.2336Z" fill="#BBBBBB"/>
<path d="M53.3811 17.2336H54.8811L53.8811 17.7336H51.8811L53.3811 17.2336Z" fill="white"/>
<path d="M53.3811 17.7336H54.8811L53.8811 18.2336H51.8811L53.3811 17.7336Z" fill="#BBBBBB"/>
<path d="M53.3811 17.7336H54.8811L53.8811 18.2336H51.8811L53.3811 17.7336Z" fill="#BBBBBB"/>
<path fill-rule="evenodd" clip-rule="evenodd" d="M69.8811 18.2336L66.8811 18.7336V19.2336L69.8811 18.7336V18.2336Z" fill="#BBBBBB"/>
<path d="M68.3811 18.2336H69.8811L68.8811 18.7336H66.8811L68.3811 18.2336Z" fill="#BBBBBB"/>
<path d="M68.3811 18.2336H69.8811L68.8811 18.7336H66.8811L68.3811 18.2336Z" fill="white"/>
<path d="M68.3811 18.7336H69.8811L68.8811 19.2336H66.8811L68.3811 18.7336Z" fill="#BBBBBB"/>
<path d="M68.3811 18.7336H69.8811L68.8811 19.2336H66.8811L68.3811 18.7336Z" fill="#BBBBBB"/>
<path fill-rule="evenodd" clip-rule="evenodd" d="M66.8811 18.2336L63.8811 18.7336V19.2336L66.8811 18.7336V18.2336Z" fill="#BBBBBB"/>
<path d="M65.3811 18.2336H66.8811L65.8811 18.7336H63.8811L65.3811 18.2336Z" fill="#BBBBBB"/>
<path d="M65.3811 18.2336H66.8811L65.8811 18.7336H63.8811L65.3811 18.2336Z" fill="white"/>
<path d="M65.3811 18.7336H66.8811L65.8811 19.2336H63.8811L65.3811 18.7336Z" fill="#BBBBBB"/>
<path d="M65.3811 18.7336H66.8811L65.8811 19.2336H63.8811L65.3811 18.7336Z" fill="#BBBBBB"/>
<path fill-rule="evenodd" clip-rule="evenodd" d="M73.8811 16.2336L70.8811 16.7336V17.2336L73.8811 16.7336V16.2336Z" fill="#BBBBBB"/>
<path d="M72.3811 16.2336H73.8811L72.8811 16.7336H70.8811L72.3811 16.2336Z" fill="#BBBBBB"/>
<path d="M72.3811 16.2336H73.8811L72.8811 16.7336H70.8811L72.3811 16.2336Z" fill="white"/>
<path d="M72.3811 16.7336H73.8811L72.8811 17.2336H70.8811L72.3811 16.7336Z" fill="#BBBBBB"/>
<path d="M72.3811 16.7336H73.8811L72.8811 17.2336H70.8811L72.3811 16.7336Z" fill="#BBBBBB"/>
<path fill-rule="evenodd" clip-rule="evenodd" d="M72.8811 17.2336L69.8811 17.7336V18.2336L72.8811 17.7336V17.2336Z" fill="#BBBBBB"/>
<path d="M71.3811 17.2336H72.8811L71.3811 17.7336H69.8811L71.3811 17.2336Z" fill="#BBBBBB"/>
<path d="M71.3811 17.2336H72.8811L71.3811 17.7336H69.8811L71.3811 17.2336Z" fill="white"/>
<path d="M71.3811 17.7336H72.8811L71.3811 18.2336H69.8811L71.3811 17.7336Z" fill="#BBBBBB"/>
<path d="M71.3811 17.7336H72.8811L71.3811 18.2336H69.8811L71.3811 17.7336Z" fill="#BBBBBB"/>
<path fill-rule="evenodd" clip-rule="evenodd" d="M63.8811 18.2336L60.8811 18.7336V19.2336L63.8811 18.7336V18.2336Z" fill="#BBBBBB"/>
<path d="M62.3811 18.2336H63.8811L62.8811 18.7336H60.8811L62.3811 18.2336Z" fill="#BBBBBB"/>
<path d="M62.3811 18.2336H63.8811L62.8811 18.7336H60.8811L62.3811 18.2336Z" fill="white"/>
<path fill-rule="evenodd" clip-rule="evenodd" d="M52.8811 17.2336L49.8811 17.7336V18.2336L52.8811 17.7336V17.2336Z" fill="#BBBBBB"/>
<path d="M51.3811 17.2336H52.8811L51.8811 17.7336H49.8811L51.3811 17.2336Z" fill="#BBBBBB"/>
<path d="M51.3811 17.2336H52.8811L51.8811 17.7336H49.8811L51.3811 17.2336Z" fill="white"/>
<path d="M51.3811 17.7336H52.8811L51.8811 18.2336H49.8811L51.3811 17.7336Z" fill="#BBBBBB"/>
<path d="M51.3811 17.7336H52.8811L51.8811 18.2336H49.8811L51.3811 17.7336Z" fill="#BBBBBB"/>
<path d="M47.8811 18.2336L70.3811 19.2336L69.8811 20.2336L45.8811 18.2336H47.8811Z" fill="#D9D9D9"/>
</svg>
